<svg xmlns="http://www.w3.org/2000/svg" viewBox="0 0 64 64" width="64" height="64" role="img" aria-labelledby="title desc">
  <title id="title">Excel skill sticker</title>
  <desc id="desc">A green Excel spreadsheet with a white X tile and visible grid.</desc>
  <metadata>Custom sticker illustration of the Microsoft Excel spreadsheet identity. Reference: https://www.microsoft.com/en-us/microsoft-365/excel. Sheet, X path, border, and decorations are redrawn adaptations.</metadata>
  <path d="M13 8h29l10 10v37H13Z" fill="#fffefa" stroke="#30253a" stroke-width="2.5" stroke-linejoin="round"/>
  <path d="M42 8v10h10" fill="#d6f0e1" stroke="#30253a" stroke-width="2.5" stroke-linejoin="round"/>
  <path d="M36 20h13v27H36Z" fill="#e9f6ee"/>
  <path d="M39 25h7m-7 6h7m-7 6h7m-7 6h7M39 24v20m7-20v20" fill="none" stroke="#55a878" stroke-width="1.4"/>
  <path d="M8 18h32v31H8Z" fill="#107c41" stroke="#30253a" stroke-width="2.5" stroke-linejoin="round"/>
  <path d="m17 26 10 15m0-15L17 41" stroke="#fffefa" stroke-width="3.3" stroke-linecap="round"/>
  <path d="m57 4 1.1 2.6 2.6 1.1-2.6 1.1-1.1 2.6-1.1-2.6-2.6-1.1 2.6-1.1Z" fill="#f7df86" stroke="#30253a" stroke-width="1.2" stroke-linejoin="round"/>
  <circle cx="5" cy="54" r="2" fill="#f3a6bd"/>
</svg>
