<svg xmlns="http://www.w3.org/2000/svg" viewBox="0 0 64 64" width="64" height="64" role="img" aria-labelledby="title desc">
  <title id="title">Figma skill sticker</title>
  <desc id="desc">Figma's five stacked colored lobes, enclosed by a cream sticker border.</desc>
  <metadata>Figma mark geometry and colors adapted from the official Figma brand resources: https://www.figma.com/brand/. Mark retained; cream sticker backing, plum outline, sparkle, and accent dot are custom adaptations.</metadata>
  <path d="M9 5h46v54H9Z" fill="#fffefa" stroke="#30253a" stroke-width="2.5" stroke-linejoin="round"/>
  <path d="M24 10h8v16h-8a8 8 0 0 1 0-16Z" fill="#f24e1e"/>
  <path d="M32 10h8a8 8 0 0 1 0 16h-8Z" fill="#ff7262"/>
  <path d="M24 26h8v16h-8a8 8 0 0 1 0-16Z" fill="#a259ff"/>
  <circle cx="40" cy="34" r="8" fill="#1abcfe"/>
  <path d="M24 42h8v8a8 8 0 1 1-8-8Z" fill="#0acf83"/>
  <path d="m56 4 1.3 3.1L60.5 8.5l-3.2 1.3L56 13l-1.3-3.2-3.2-1.3 3.2-1.4Z" fill="#f7df86" stroke="#30253a" stroke-width="1.3" stroke-linejoin="round"/>
  <circle cx="8" cy="45" r="2" fill="#f3a6bd"/>
</svg>
